<svg width="489" height="81" viewBox="0 0 489 81" fill="none" xmlns="http://www.w3.org/2000/svg">
<path d="M300.077 65.1675H285.296L281.213 55.8989H254.302L250.309 65.1675H236.45L258.504 15.2192H276.98L300.077 65.1675ZM386.832 35.0376L401.733 15.2192H417.142L393.3 46.9585V65.1675H379.531V46.8989L354.825 15.2192H371.901L386.832 35.0376ZM197.679 49.0151L214.01 15.1899H231.206V65.1382H217.765V32.4448L202.626 65.1382H191.837L176.698 32.4448V65.1382H163.466V15.1899H181.794L197.679 49.0151ZM349.965 26.604H330.713V65.1382H317.004V26.6343H297.692V15.1899H349.965V26.604ZM449.328 30.687L462.769 15.1899H478.653L457.702 39.6274L479.577 65.1382H462.918L448.657 48.9126L434.219 65.1382H418.036L440 39.7466L418.334 15.1899H435.798L449.328 30.687ZM258.802 45.6177H276.594L267.563 25.2622L258.802 45.6177Z" fill="#E9EDF5"></path>
<path d="M129.311 15.1001L78.6177 51.8459V15.1001L10.1924 65.1674H23.3947C23.3947 65.1674 31.5604 53.5745 42.9448 53.5745C54.3291 53.5745 54.4781 66.2701 65.8625 66.2701C74.356 66.2701 80.2568 53.6043 92.9227 53.6043C104.784 53.6043 104.456 66.2999 115.84 66.2999H116.109C123.261 66.1807 129.251 60.3097 129.311 53.187V15.1001Z" fill="#E9EDF5"></path>
</svg>